<mxfile host="app.diagrams.net" agent="Mozilla/5.0 (Windows NT 10.0; Win64; x64) AppleWebKit/537.36 (KHTML, like Gecko) Chrome/139.0.0.0 Safari/537.36" version="28.1.0">
  <diagram name="Page-1" id="6uOSpxt3UpFVZuMUfjd0">
    <mxGraphModel dx="2564" dy="1560" grid="1" gridSize="10" guides="1" tooltips="1" connect="1" arrows="1" fold="1" page="1" pageScale="1" pageWidth="827" pageHeight="1169" math="0" shadow="0">
      <root>
        <mxCell id="0" />
        <mxCell id="1" parent="0" />
        <mxCell id="mWCi7NmA0Faf5UPAzLof-17" value="" style="edgeStyle=orthogonalEdgeStyle;rounded=0;orthogonalLoop=1;jettySize=auto;html=1;" edge="1" parent="1" source="mWCi7NmA0Faf5UPAzLof-1" target="mWCi7NmA0Faf5UPAzLof-3">
          <mxGeometry relative="1" as="geometry" />
        </mxCell>
        <mxCell id="mWCi7NmA0Faf5UPAzLof-1" value="&lt;font style=&quot;font-size: 14px;&quot;&gt;Start&lt;/font&gt;" style="ellipse;whiteSpace=wrap;html=1;" vertex="1" parent="1">
          <mxGeometry x="354" y="20" width="120" height="80" as="geometry" />
        </mxCell>
        <mxCell id="mWCi7NmA0Faf5UPAzLof-2" value="&lt;font style=&quot;font-size: 14px;&quot;&gt;End&lt;/font&gt;" style="ellipse;whiteSpace=wrap;html=1;" vertex="1" parent="1">
          <mxGeometry x="354" y="1010" width="120" height="80" as="geometry" />
        </mxCell>
        <mxCell id="mWCi7NmA0Faf5UPAzLof-18" value="" style="edgeStyle=orthogonalEdgeStyle;rounded=0;orthogonalLoop=1;jettySize=auto;html=1;" edge="1" parent="1" source="mWCi7NmA0Faf5UPAzLof-3" target="mWCi7NmA0Faf5UPAzLof-5">
          <mxGeometry relative="1" as="geometry" />
        </mxCell>
        <mxCell id="mWCi7NmA0Faf5UPAzLof-23" value="&lt;font style=&quot;font-size: 14px;&quot;&gt;Yes&lt;/font&gt;" style="edgeLabel;html=1;align=center;verticalAlign=middle;resizable=0;points=[];" vertex="1" connectable="0" parent="mWCi7NmA0Faf5UPAzLof-18">
          <mxGeometry y="5" relative="1" as="geometry">
            <mxPoint as="offset" />
          </mxGeometry>
        </mxCell>
        <mxCell id="mWCi7NmA0Faf5UPAzLof-3" value="&lt;font style=&quot;font-size: 18px;&quot;&gt;Check current Capacity&lt;/font&gt;" style="rounded=1;whiteSpace=wrap;html=1;" vertex="1" parent="1">
          <mxGeometry x="354" y="170" width="120" height="60" as="geometry" />
        </mxCell>
        <mxCell id="mWCi7NmA0Faf5UPAzLof-19" value="" style="edgeStyle=orthogonalEdgeStyle;rounded=0;orthogonalLoop=1;jettySize=auto;html=1;" edge="1" parent="1" source="mWCi7NmA0Faf5UPAzLof-5" target="mWCi7NmA0Faf5UPAzLof-6">
          <mxGeometry relative="1" as="geometry" />
        </mxCell>
        <mxCell id="mWCi7NmA0Faf5UPAzLof-24" value="&lt;font style=&quot;font-size: 14px;&quot;&gt;No&lt;/font&gt;" style="edgeLabel;html=1;align=center;verticalAlign=middle;resizable=0;points=[];" vertex="1" connectable="0" parent="mWCi7NmA0Faf5UPAzLof-19">
          <mxGeometry x="-0.3095" y="-4" relative="1" as="geometry">
            <mxPoint as="offset" />
          </mxGeometry>
        </mxCell>
        <mxCell id="mWCi7NmA0Faf5UPAzLof-20" value="" style="edgeStyle=orthogonalEdgeStyle;rounded=0;orthogonalLoop=1;jettySize=auto;html=1;" edge="1" parent="1" source="mWCi7NmA0Faf5UPAzLof-5" target="mWCi7NmA0Faf5UPAzLof-7">
          <mxGeometry relative="1" as="geometry" />
        </mxCell>
        <mxCell id="mWCi7NmA0Faf5UPAzLof-5" value="&lt;font style=&quot;font-size: 14px;&quot;&gt;CC &amp;lt; MC&lt;/font&gt;" style="rhombus;whiteSpace=wrap;html=1;" vertex="1" parent="1">
          <mxGeometry x="342" y="300" width="144" height="130" as="geometry" />
        </mxCell>
        <mxCell id="mWCi7NmA0Faf5UPAzLof-22" value="" style="edgeStyle=orthogonalEdgeStyle;rounded=0;orthogonalLoop=1;jettySize=auto;html=1;" edge="1" parent="1" source="mWCi7NmA0Faf5UPAzLof-6" target="mWCi7NmA0Faf5UPAzLof-21">
          <mxGeometry relative="1" as="geometry" />
        </mxCell>
        <mxCell id="mWCi7NmA0Faf5UPAzLof-6" value="&lt;font style=&quot;font-size: 14px;&quot;&gt;Close Barrier&lt;/font&gt;" style="shape=parallelogram;perimeter=parallelogramPerimeter;whiteSpace=wrap;html=1;fixedSize=1;" vertex="1" parent="1">
          <mxGeometry x="560" y="332.5" width="130" height="65" as="geometry" />
        </mxCell>
        <mxCell id="mWCi7NmA0Faf5UPAzLof-26" value="" style="edgeStyle=orthogonalEdgeStyle;rounded=0;orthogonalLoop=1;jettySize=auto;html=1;" edge="1" parent="1" source="mWCi7NmA0Faf5UPAzLof-7" target="mWCi7NmA0Faf5UPAzLof-9">
          <mxGeometry relative="1" as="geometry" />
        </mxCell>
        <mxCell id="mWCi7NmA0Faf5UPAzLof-7" value="&lt;font style=&quot;font-size: 14px;&quot;&gt;Vehicle ID&lt;/font&gt;" style="shape=parallelogram;perimeter=parallelogramPerimeter;whiteSpace=wrap;html=1;fixedSize=1;" vertex="1" parent="1">
          <mxGeometry x="354" y="470" width="120" height="60" as="geometry" />
        </mxCell>
        <mxCell id="mWCi7NmA0Faf5UPAzLof-27" value="" style="edgeStyle=orthogonalEdgeStyle;rounded=0;orthogonalLoop=1;jettySize=auto;html=1;" edge="1" parent="1" source="mWCi7NmA0Faf5UPAzLof-9" target="mWCi7NmA0Faf5UPAzLof-16">
          <mxGeometry relative="1" as="geometry" />
        </mxCell>
        <mxCell id="mWCi7NmA0Faf5UPAzLof-34" value="&lt;font style=&quot;font-size: 14px;&quot;&gt;Yes&lt;/font&gt;" style="edgeLabel;html=1;align=center;verticalAlign=middle;resizable=0;points=[];" vertex="1" connectable="0" parent="mWCi7NmA0Faf5UPAzLof-27">
          <mxGeometry x="-0.1" y="-3" relative="1" as="geometry">
            <mxPoint as="offset" />
          </mxGeometry>
        </mxCell>
        <mxCell id="mWCi7NmA0Faf5UPAzLof-30" value="" style="edgeStyle=orthogonalEdgeStyle;rounded=0;orthogonalLoop=1;jettySize=auto;html=1;" edge="1" parent="1" source="mWCi7NmA0Faf5UPAzLof-9" target="mWCi7NmA0Faf5UPAzLof-10">
          <mxGeometry relative="1" as="geometry" />
        </mxCell>
        <mxCell id="mWCi7NmA0Faf5UPAzLof-31" value="&lt;font style=&quot;font-size: 14px;&quot;&gt;No&lt;/font&gt;" style="edgeLabel;html=1;align=center;verticalAlign=middle;resizable=0;points=[];" vertex="1" connectable="0" parent="mWCi7NmA0Faf5UPAzLof-30">
          <mxGeometry x="-0.098" y="-2" relative="1" as="geometry">
            <mxPoint as="offset" />
          </mxGeometry>
        </mxCell>
        <mxCell id="mWCi7NmA0Faf5UPAzLof-9" value="&lt;font style=&quot;font-size: 14px;&quot;&gt;Check&amp;nbsp;&lt;/font&gt;&lt;div&gt;&lt;font size=&quot;3&quot;&gt;if&lt;/font&gt;&lt;/div&gt;&lt;div&gt;&lt;font size=&quot;3&quot;&gt;&amp;nbsp;registered&lt;/font&gt;&lt;/div&gt;" style="rhombus;whiteSpace=wrap;html=1;" vertex="1" parent="1">
          <mxGeometry x="347" y="600" width="134" height="130" as="geometry" />
        </mxCell>
        <mxCell id="mWCi7NmA0Faf5UPAzLof-32" value="" style="edgeStyle=orthogonalEdgeStyle;rounded=0;orthogonalLoop=1;jettySize=auto;html=1;" edge="1" parent="1" source="mWCi7NmA0Faf5UPAzLof-10" target="mWCi7NmA0Faf5UPAzLof-11">
          <mxGeometry relative="1" as="geometry" />
        </mxCell>
        <mxCell id="mWCi7NmA0Faf5UPAzLof-10" value="&lt;font style=&quot;font-size: 14px;&quot;&gt;Alert&lt;/font&gt;" style="shape=parallelogram;perimeter=parallelogramPerimeter;whiteSpace=wrap;html=1;fixedSize=1;" vertex="1" parent="1">
          <mxGeometry x="565" y="635" width="120" height="60" as="geometry" />
        </mxCell>
        <mxCell id="mWCi7NmA0Faf5UPAzLof-33" value="" style="edgeStyle=orthogonalEdgeStyle;rounded=0;orthogonalLoop=1;jettySize=auto;html=1;" edge="1" parent="1" source="mWCi7NmA0Faf5UPAzLof-11" target="mWCi7NmA0Faf5UPAzLof-12">
          <mxGeometry relative="1" as="geometry" />
        </mxCell>
        <mxCell id="mWCi7NmA0Faf5UPAzLof-11" value="&lt;font style=&quot;font-size: 14px;&quot;&gt;Entry Close&lt;/font&gt;" style="shape=parallelogram;perimeter=parallelogramPerimeter;whiteSpace=wrap;html=1;fixedSize=1;" vertex="1" parent="1">
          <mxGeometry x="755" y="635" width="120" height="60" as="geometry" />
        </mxCell>
        <mxCell id="mWCi7NmA0Faf5UPAzLof-12" value="&lt;font style=&quot;font-size: 14px;&quot;&gt;Alert/Message Generated&lt;/font&gt;" style="shape=parallelogram;perimeter=parallelogramPerimeter;whiteSpace=wrap;html=1;fixedSize=1;" vertex="1" parent="1">
          <mxGeometry x="920" y="632.5" width="130" height="65" as="geometry" />
        </mxCell>
        <mxCell id="mWCi7NmA0Faf5UPAzLof-29" value="" style="edgeStyle=orthogonalEdgeStyle;rounded=0;orthogonalLoop=1;jettySize=auto;html=1;" edge="1" parent="1" source="mWCi7NmA0Faf5UPAzLof-15" target="mWCi7NmA0Faf5UPAzLof-2">
          <mxGeometry relative="1" as="geometry" />
        </mxCell>
        <mxCell id="mWCi7NmA0Faf5UPAzLof-15" value="&lt;font style=&quot;font-size: 18px;&quot;&gt;Decrease Current Capacity&lt;/font&gt;" style="rounded=1;whiteSpace=wrap;html=1;" vertex="1" parent="1">
          <mxGeometry x="354" y="900" width="120" height="60" as="geometry" />
        </mxCell>
        <mxCell id="mWCi7NmA0Faf5UPAzLof-28" value="" style="edgeStyle=orthogonalEdgeStyle;rounded=0;orthogonalLoop=1;jettySize=auto;html=1;" edge="1" parent="1" source="mWCi7NmA0Faf5UPAzLof-16" target="mWCi7NmA0Faf5UPAzLof-15">
          <mxGeometry relative="1" as="geometry" />
        </mxCell>
        <mxCell id="mWCi7NmA0Faf5UPAzLof-16" value="&lt;font style=&quot;font-size: 14px;&quot;&gt;Barrier&lt;/font&gt;&lt;div&gt;&lt;font size=&quot;3&quot;&gt;Open&lt;/font&gt;&lt;/div&gt;" style="shape=parallelogram;perimeter=parallelogramPerimeter;whiteSpace=wrap;html=1;fixedSize=1;" vertex="1" parent="1">
          <mxGeometry x="354" y="790" width="120" height="60" as="geometry" />
        </mxCell>
        <mxCell id="mWCi7NmA0Faf5UPAzLof-21" value="&lt;font style=&quot;font-size: 14px;&quot;&gt;Alert/Message Generated&lt;/font&gt;" style="shape=parallelogram;perimeter=parallelogramPerimeter;whiteSpace=wrap;html=1;fixedSize=1;" vertex="1" parent="1">
          <mxGeometry x="750" y="332.5" width="130" height="65" as="geometry" />
        </mxCell>
      </root>
    </mxGraphModel>
  </diagram>
</mxfile>
